<svg xmlns="http://www.w3.org/2000/svg" width="1920" height="1818.227" viewBox="0 0 1920 1818.227">
  <g id="Group_1776" data-name="Group 1776" transform="translate(0 453.342)">
    <rect id="Rectangle_3696" data-name="Rectangle 3696" width="1920" height="1080" fill="#fff6ed"/>
    <g id="Group_1775" data-name="Group 1775">
      <path id="Path_312" data-name="Path 312" d="M569.02,271.5c-1.605,18.123.81,34.319,8.345,47.479,16.6,28.989,43.545,18.117,148.65,43.579,127.981,31,193.931,46.977,224.24,98.913,51.423,88.121-47.605,197.772,1.705,259.565,16.223,20.329,45.389,31.572,77.913,33.943V271.5Z" transform="translate(890.127 -271.5)" fill="#333a64"/>
      <g id="Group_62" data-name="Group 62" transform="translate(1631.881 304.82)">
        <path id="Path_300" data-name="Path 300" d="M923.4,441.131c5.215-3.519,10.377-7.394,16.459-9.293,7.021,1.264,15.689,3.964,17.844,11.69,4.154,8.82,1.644,19.374-3.861,27.009-3.263,4.6-8.834,6.351-13.154,9.676-3.405-.432-6.834-.625-10.25-.929-.242-.932-.473-1.861-.7-2.794q-2.2.021-4.4-.076c-.777-2.614.014-6.755-3.758-7-2.818,1.72-4.309-1.734-4.755-3.965C913.623,457.179,915.512,446.052,923.4,441.131Z" transform="translate(-725.505 -431.838)" fill="#ffbb59"/>
        <path id="Path_301" data-name="Path 301" d="M914.376,436.333c4.041-1.644,8.043-3.581,12.567-2.984.256.739.781,2.221,1.033,2.96,1.606.967,3.239,1.923,4.883,2.866.56,4.13,1.492,8.274,1.274,12.481a47.074,47.074,0,0,1-14.466,27.1c-3.813,1.35-6.617,4.424-10.44,5.722-1.047-.2-3.163-.635-4.206-.853-.193-.673-.573-2.027-.767-2.714-2.511-1.4-5.788-2.231-7.356-4.769-.777-6.869,1.8-13.472,3.75-19.933C904.127,448.941,907.049,440.68,914.376,436.333Z" transform="translate(-778.445 -428.403)" fill="#ffbb59"/>
        <path id="Path_302" data-name="Path 302" d="M891.655,439.823c4.3-2.828,11.855-6.779,15.436-1.033,2.525,3.429,6.741,5.19,8.882,8.937,3.074,8.516.829,17.578-3.094,25.4-2.386,8.7-8.758,16.317-17.464,19.1-.166-.459-.487-1.378-.639-1.837-.242.649-.715,1.975-.943,2.638-5.684-1.961-10.643-5.467-15.323-9.151-.9-1.25-1.81-2.511-2.69-3.761-.318-7.532-3.236-15.371-.166-22.665,2.117-7.1,6.91-13.064,12.66-17.6C889.155,439.837,890.826,439.823,891.655,439.823Z" transform="translate(-844.694 -422.004)" fill="#ffbb59"/>
        <path id="Path_303" data-name="Path 303" d="M898.722,456.615c7.432.587,14.85-2.5,22.164-.141,2.027,1.885,4.911,3.647,4.959,6.755-1.824,8.668-7.3,15.768-12.974,22.3-2.6,2.538-3.6,6.233-6.234,8.733-2.4.356-4.831.1-7.228.28-.356-.511-1.057-1.544-1.416-2.051-3.439-.18-7.1.342-10.364-.957-2.2-1.557-2.738-4.4-3.964-6.63,1.582-7.01,2.846-14.121,6.489-20.444C893.062,461.84,894.819,457.99,898.722,456.615Z" transform="translate(-815.052 -361.567)" fill="#ffbb59"/>
        <path id="Path_304" data-name="Path 304" d="M922.917,458.076c4.562-3.122,10.122-1.568,14.712.577,4.434,7.073,5.263,16.645,1.071,24.015a34.641,34.641,0,0,1-13.092,12.567c-4.859,2.88-11.207.753-14.826-3.1-1.35-3.112-2.984-7.28-.725-10.288.521.166,1.554.525,2.065.7a5.467,5.467,0,0,0,.37-2.459l-.6-.535c-.881-1.847,2.524-3.443,3.135-5.239C917.767,468.926,916.3,460.818,922.917,458.076Z" transform="translate(-744.64 -359.269)" fill="#ffbb59"/>
        <path id="Path_305" data-name="Path 305" d="M885.1,473.179c3.364-2.6,7.366-2.894,11.445-2.524,4.527.929,10.046.611,13.092,4.793,1.046,3.681,3.174,7.967.943,11.624-2.089,5.239-6.475,8.948-9.2,13.8A38.936,38.936,0,0,1,883.3,514.668c-7.9,2.932-18.189-3.568-17.578-12.363A62.194,62.194,0,0,1,885.1,473.179Z" transform="translate(-865.7 -315.169)" fill="#ffbb59"/>
        <path id="Path_306" data-name="Path 306" d="M942.17,472.015c3.823-.753,7.635-2.169,11.562-1.109a45.235,45.235,0,0,1,2.459,5.377c-.508,3.212-2.269,6.143-2.2,9.473l-.829.214c0,2.283.024,4.641-1.018,6.758.2,3.312.166,6.655.176,9.98-1.63,4.717-4.231,9.266-8.337,12.235-4.945,2.68-8.692,7.318-14.276,8.861-5.045,1.057-9.407-2.334-13.092-5.291a47.836,47.836,0,0,1-2.231-6.551,10.823,10.823,0,0,0-3.505-2.055c2.41-1.095.5-3.951.435-5.774-.7-2.842-.919-5.926.445-8.63,4.565-7.608,10.222-15.295,18.97-18.327,1.667-.995,3.505-.231,5.249.086C938.068,475.544,940.157,473.81,942.17,472.015Z" transform="translate(-736.754 -315.166)" fill="#ffbb59"/>
        <path id="Path_307" data-name="Path 307" d="M908.5,481.069c4.907-4.348,11.828-5.1,17.015-9.038,9.345,6.078,6.972,22.344-2.714,27.047-1.592-.214-3.454-.891-4.462.818-2.524,2.994-6.5,3.733-9.839,5.443-1.62-.255-3.239-.535-4.831-.819a16.651,16.651,0,0,1-10.046-.062c.141-1.464-.625-2.8-.9-4.182,1.174-1.043,2.435-1.961,3.657-2.956.781.09,2.334.269,3.112.356C898.77,490.552,904.609,486.052,908.5,481.069Z" transform="translate(-789.728 -311.473)" fill="#ffbb59"/>
      </g>
      <path id="Path_682" data-name="Path 682" d="M2018.182,152.046V522.5l2.352.129c13.553.854,27.107,1.582,40.682,2.052,100.818,3.549,210.145-8.273,280.991-88.441,26.125-29.544,47.139-64.134,64.926-100.069h.022c3.847-7.782,7.567-15.649,11.137-23.538,6.028-13.3,11.672-26.659,17.016-39.913,15.713-38.887,27.728-79.355,34.441-120.678Z" transform="translate(-2018.182 -152.046)" fill="#ffbb59"/>
    </g>
    <path id="Path_691" data-name="Path 691" d="M3356.48,2224.837c-20.664-53.086-37.118-108.216-53.066-161.815-42.05-141.169-82.733-295.446-188.577-403.151-58.719-59.789-133.388-94.854-212.555-118.122-46.01-13.509-93.424-23.412-140.083-35.5-38.343-9.941-76.145-21.3-112.325-37.431-78.811-35.03-133.317-93.107-170.038-171.136-34.815-73.88-54.183-153.986-85.289-229.4-31.321-75.847-75.533-146.667-147.354-189.088-68.979-40.707-149.913-62.553-229.009-61.5V861.2c55.118-.766,110.057,15.989,162.045,34.523,80.392,28.729,131.874,93.468,166.329,169.716,66.244,146.7,85.361,322.866,232.5,415.2,31.07,19.519,64.3,33.938,98.644,45.626,126.439,43,268.18,49.118,375.106,135.78,114.952,93.142,158.91,244.616,199.7,381.488,17.747,59.607,35.5,121.471,57.711,181.294Z" transform="matrix(-0.921, 0.391, -0.391, -0.921, 4008.469, 806.064)" fill="#fff"/>
  </g>
</svg>
